<svg width="37" height="42" viewBox="0 0 37 42" fill="none" xmlns="http://www.w3.org/2000/svg">
<path d="M17.6906 25.9375C17.2452 27.0376 17 28.2402 17 29.5C17 34.7467 21.2533 39 26.5 39C31.7467 39 36 34.7467 36 29.5C36 24.2533 31.7467 20 26.5 20C25.2402 20 24.0376 20.2452 22.9375 20.6906" stroke="#0AB285" stroke-width="2" stroke-linecap="round"/>
<path d="M30.7822 26.1015C30.5381 25.9365 30.1884 25.9769 30.0007 26.1918L25.1407 31.7634L22.9543 29.8084C22.7383 29.6154 22.3856 29.6129 22.1662 29.8031C21.947 29.9933 21.9443 30.304 22.1602 30.4971L24.7957 32.8536C24.9007 32.9476 25.0438 33 25.1927 33C25.204 33 25.2155 32.9997 25.2268 32.9991C25.3877 32.9904 25.5365 32.9208 25.6346 32.8082L30.8846 26.7896C31.0721 26.5748 31.0263 26.2667 30.7822 26.1015Z" fill="#0AB285" stroke="#0AB285"/>
<path d="M22.9999 2.00006C23.5522 2.00006 23.9999 1.55235 23.9999 1.00006C23.9999 0.447776 23.5522 6.10352e-05 22.9999 6.10352e-05V1.00006V2.00006ZM1 31.0001H2V4.00006H1H0V31.0001H1ZM1 4.00006H2C2 3.32959 2.11748 2.81411 2.33205 2.49226C2.49891 2.24197 2.79131 2.00006 3.5 2.00006V1.00006V6.10352e-05C2.20869 6.10352e-05 1.25109 0.508155 0.66795 1.38286C0.132518 2.18601 0 3.17053 0 4.00006H1ZM3.5 1.00006V2.00006H22.9999V1.00006V6.10352e-05H3.5V1.00006Z" fill="#452A7A"/>
<path d="M34 17.0001V4.00006C34 2.50006 33.5 1.00006 31.5 1.00006C28.7 1.00006 13.8334 1.00006 12.0001 1.00006" stroke="#452A7A" stroke-width="2" stroke-linecap="round"/>
<path d="M17.9999 40.0001C18.5522 40.0001 18.9999 40.4478 18.9999 41.0001C18.9999 41.5523 18.5522 42.0001 17.9999 42.0001V41.0001V40.0001ZM1 31.0001H2V38.0001H1H0V31.0001H1ZM1 38.0001H2C2 38.6705 2.11748 39.186 2.33205 39.5079C2.49891 39.7582 2.79131 40.0001 3.5 40.0001V41.0001V42.0001C2.20869 42.0001 1.25109 41.492 0.66795 40.6173C0.132518 39.8141 0 38.8296 0 38.0001H1ZM3.5 41.0001V40.0001H17.9999V41.0001V42.0001H3.5V41.0001Z" fill="#452A7A"/>
<path d="M1 5V7C1.48485 10 4.97576 12 9.24242 12C13.5091 12 16.1919 12 17 12" stroke="#452A7A" stroke-width="2"/>
<path d="M34 5V7C33.4848 10 29.7758 12 25.2424 12C20.7091 12 17.8586 12 17 12" stroke="#452A7A" stroke-width="2"/>
<circle cx="17.5" cy="7.5" r="1.5" stroke="#452A7A" stroke-width="2"/>
<circle cx="17.5" cy="16.5" r="1.5" stroke="#452A7A" stroke-width="2"/>
<rect x="18" y="9" width="6" height="1" rx="0.5" transform="rotate(90 18 9)" fill="#452A7A" stroke="#452A7A"/>
</svg>
