<svg width="43" height="39" viewBox="0 0 43 39" fill="none" xmlns="http://www.w3.org/2000/svg">
<path d="M39 12C41.2091 12 43 13.7909 43 16V39L36.333 34H19C16.7909 34 15 32.2091 15 30V16C15 13.7909 16.7909 12 19 12H39ZM19 14C17.9643 14 17.113 14.7872 17.0107 15.7959L17 16V30C17 31.1046 17.8954 32 19 32H37L37.5332 32.4004L41 35V16C41 14.8954 40.1046 14 39 14H19ZM24 0C26.2091 9.66384e-08 28 1.79086 28 4V8H26V4L25.9893 3.7959C25.887 2.78722 25.0357 2 24 2H4C2.89543 2 2 2.89543 2 4V23L5.4668 20.4004L6 20H11V22H6.66699L0 27V4C6.44266e-08 1.79086 1.79086 0 4 0H24ZM34 24C34.5523 24 35 24.4477 35 25C35 25.5523 34.5523 26 34 26H27C26.4477 26 26 25.5523 26 25C26 24.4477 26.4477 24 27 24H34ZM34 19C34.5523 19 35 19.4477 35 20C35 20.5523 34.5523 21 34 21H24C23.4477 21 23 20.5523 23 20C23 19.4477 23.4477 19 24 19H34Z" fill="white"/>
</svg>
