<svg width="37" height="42" viewBox="0 0 37 42" fill="none" xmlns="http://www.w3.org/2000/svg">
<path d="M17.6906 25.9375C17.2452 27.0376 17 28.2402 17 29.5C17 34.7467 21.2533 39 26.5 39C31.7467 39 36 34.7467 36 29.5C36 24.2533 31.7467 20 26.5 20C25.2402 20 24.0376 20.2452 22.9375 20.6906" stroke="#0AB285" stroke-width="2" stroke-linecap="round"/>
<circle cx="26.5" cy="26.65" r="2.8" stroke="#0AB285" stroke-width="2"/>
<path d="M28.4086 31.4078C30.8553 31.5319 32.9141 33.1221 33.7269 35.317L32.0023 36.525C31.6031 34.737 30.0083 33.4001 28.1 33.4H24.8998C22.7266 33.4001 20.9587 35.1332 20.9017 37.2926L20.3246 37.1002L19.1478 35.6881C19.8847 33.2085 22.181 31.4001 24.8998 31.4H28.1L28.4086 31.4078Z" fill="#0AB285"/>
<rect x="6" y="7.00006" width="12" height="2" rx="1" fill="#452A7A"/>
<rect x="6" y="11.0001" width="12" height="2" rx="1" fill="#452A7A"/>
<rect x="6" y="15.0001" width="7" height="2" rx="1" fill="#452A7A"/>
<path d="M22.9999 2.00006C23.5522 2.00006 23.9999 1.55235 23.9999 1.00006C23.9999 0.447776 23.5522 6.10352e-05 22.9999 6.10352e-05V1.00006V2.00006ZM1 31.0001H2V4.00006H1H0V31.0001H1ZM1 4.00006H2C2 3.32959 2.11748 2.81411 2.33205 2.49226C2.49891 2.24197 2.79131 2.00006 3.5 2.00006V1.00006V6.10352e-05C2.20869 6.10352e-05 1.25109 0.508155 0.66795 1.38286C0.132518 2.18601 0 3.17053 0 4.00006H1ZM3.5 1.00006V2.00006H22.9999V1.00006V6.10352e-05H3.5V1.00006Z" fill="#452A7A"/>
<path d="M17.9999 40.0001C18.5522 40.0001 18.9999 40.4478 18.9999 41.0001C18.9999 41.5523 18.5522 42.0001 17.9999 42.0001V41.0001V40.0001ZM1 31.0001H2V38.0001H1H0V31.0001H1ZM1 38.0001H2C2 38.6705 2.11748 39.186 2.33205 39.5079C2.49891 39.7582 2.79131 40.0001 3.5 40.0001V41.0001V42.0001C2.20869 42.0001 1.25109 41.492 0.66795 40.6173C0.132518 39.8141 0 38.8296 0 38.0001H1ZM3.5 41.0001V40.0001H17.9999V41.0001V42.0001H3.5V41.0001Z" fill="#452A7A"/>
<path d="M23 1.00006V8.00006C23 9.50006 23.5 11.0001 25.5 11.0001C28.3 11.0001 31.1666 11.0001 32.9999 11.0001" stroke="#452A7A" stroke-width="2" stroke-linecap="round"/>
<path d="M33 17.0001L33 11.0001" stroke="#452A7A" stroke-width="2" stroke-linecap="round"/>
<path d="M33 11.0001L22.9999 1.00006" stroke="#452A7A" stroke-width="2" stroke-linecap="round"/>
</svg>
