<svg width="37" height="42" viewBox="0 0 37 42" fill="none" xmlns="http://www.w3.org/2000/svg">
<path d="M27.8924 18.8992C27.5199 18.2325 26.7941 17.8182 25.9997 17.8182C25.2054 17.8182 24.4795 18.2325 24.107 18.9002L16.2513 33.0114C16.077 33.3213 15.9907 33.669 16.0008 34.0203C16.0109 34.3716 16.1172 34.7143 16.3091 35.0146C16.4983 35.3163 16.7669 35.5659 17.0885 35.7387C17.4102 35.9115 17.7736 36.0015 18.143 36H33.8564C34.6144 36 35.3006 35.6315 35.6913 35.0146C35.883 34.7142 35.9891 34.3715 35.9992 34.0203C36.0093 33.6691 35.9232 33.3214 35.7492 33.0114L27.8924 18.8992Z" stroke="#0AB285" stroke-width="2"/>
<path d="M25.8272 31.8206C26.22 31.8206 26.5518 32.1519 26.5518 32.5559C26.5516 32.9475 26.2198 33.2903 25.8272 33.2903C25.4102 33.2902 25.0912 32.9474 25.0909 32.5559C25.0909 32.152 25.41 31.8206 25.8272 31.8206ZM25.8155 23.2727C26.1713 23.2728 26.4659 23.4812 26.4659 23.8606C26.4659 25.6356 26.3058 27.8395 26.3058 29.6145C26.3055 29.8835 26.0118 30.006 25.8155 30.0061C25.5456 30.0061 25.3119 29.8836 25.3116 29.6145C25.3116 27.8395 25.1651 25.6356 25.1651 23.8606C25.1651 23.4811 25.4473 23.2727 25.8155 23.2727Z" fill="#0AB285"/>
<path d="M25.8272 31.8206V31.5706H25.8272L25.8272 31.8206ZM26.5518 32.5559L26.8018 32.5561V32.5559H26.5518ZM25.8272 33.2903L25.8272 33.5403H25.8272V33.2903ZM25.0909 32.5559H24.8409L24.8409 32.5561L25.0909 32.5559ZM25.8155 23.2727L25.8156 23.0227H25.8155V23.2727ZM26.4659 23.8606L26.7159 23.8606V23.8606H26.4659ZM26.3058 29.6145L26.5558 29.6147V29.6145H26.3058ZM25.8155 30.0061V30.2561H25.8157L25.8155 30.0061ZM25.3116 29.6145H25.0616L25.0616 29.6148L25.3116 29.6145ZM25.1651 23.8606H24.9151V23.8606L25.1651 23.8606ZM25.8272 31.8206V32.0706C26.0797 32.0706 26.3018 32.2877 26.3018 32.5559H26.5518H26.8018C26.8018 32.0161 26.3603 31.5706 25.8272 31.5706V31.8206ZM26.5518 32.5559L26.3018 32.5557C26.3017 32.8141 26.0771 33.0403 25.8272 33.0403V33.2903V33.5403C26.3626 33.5403 26.8015 33.0808 26.8018 32.5561L26.5518 32.5559ZM25.8272 33.2903L25.8273 33.0403C25.5531 33.0402 25.3411 32.8142 25.3409 32.5557L25.0909 32.5559L24.8409 32.5561C24.8413 33.0806 25.2673 33.5402 25.8272 33.5403L25.8272 33.2903ZM25.0909 32.5559H25.3409C25.3409 32.2876 25.5506 32.0706 25.8273 32.0706L25.8272 31.8206L25.8272 31.5706C25.2695 31.5707 24.8409 32.0164 24.8409 32.5559H25.0909ZM25.8155 23.2727L25.8154 23.5227C25.9467 23.5228 26.0486 23.5613 26.113 23.6156C26.1725 23.6657 26.2159 23.7416 26.2159 23.8606H26.4659H26.7159C26.7159 23.6002 26.612 23.3822 26.4352 23.2333C26.2634 23.0885 26.0401 23.0228 25.8156 23.0227L25.8155 23.2727ZM26.4659 23.8606L26.2159 23.8606C26.2159 24.7421 26.1761 25.7315 26.136 26.7275C26.096 27.721 26.0558 28.721 26.0558 29.6145H26.3058H26.5558C26.5558 28.733 26.5955 27.7436 26.6356 26.7476C26.6756 25.7542 26.7159 24.7541 26.7159 23.8606L26.4659 23.8606ZM26.3058 29.6145L26.0558 29.6143C26.0557 29.643 26.0448 29.6708 25.9971 29.7021C25.9435 29.7372 25.8695 29.7561 25.8154 29.7561L25.8155 30.0061L25.8157 30.2561C25.9578 30.256 26.1289 30.2136 26.2713 30.1202C26.4195 30.023 26.5555 29.8549 26.5558 29.6147L26.3058 29.6145ZM25.8155 30.0061V29.7561C25.7136 29.7561 25.643 29.7323 25.6054 29.7061C25.5883 29.6942 25.579 29.6826 25.5734 29.672C25.5679 29.6617 25.5616 29.6443 25.5616 29.6142L25.3116 29.6145L25.0616 29.6148C25.0618 29.8333 25.1622 30.0067 25.3195 30.1163C25.4664 30.2187 25.6475 30.2561 25.8155 30.2561V30.0061ZM25.3116 29.6145H25.5616C25.5616 28.7215 25.5248 27.7219 25.4882 26.7284C25.4515 25.7325 25.4151 24.7426 25.4151 23.8606L25.1651 23.8606L24.9151 23.8606C24.9151 24.7536 24.952 25.7532 24.9885 26.7468C25.0252 27.7426 25.0616 28.7325 25.0616 29.6145H25.3116ZM25.1651 23.8606H25.4151C25.4151 23.738 25.458 23.6627 25.5146 23.6145C25.576 23.562 25.6765 23.5227 25.8155 23.5227V23.2727V23.0227C25.5864 23.0227 25.3616 23.0876 25.1899 23.2342C25.0133 23.385 24.9151 23.6037 24.9151 23.8606H25.1651Z" fill="#0AB285"/>
<rect x="6" y="7.00006" width="12" height="2" rx="1" fill="#452A7A"/>
<rect x="6" y="12.0001" width="12" height="2" rx="1" fill="#452A7A"/>
<rect x="6" y="17.0001" width="7" height="2" rx="1" fill="#452A7A"/>
<path d="M22.9999 2.00006C23.5522 2.00006 23.9999 1.55235 23.9999 1.00006C23.9999 0.447776 23.5522 6.10352e-05 22.9999 6.10352e-05V1.00006V2.00006ZM1 31.0001H2V4.00006H1H0V31.0001H1ZM1 4.00006H2C2 3.32959 2.11748 2.81411 2.33205 2.49226C2.49891 2.24197 2.79131 2.00006 3.5 2.00006V1.00006V6.10352e-05C2.20869 6.10352e-05 1.25109 0.508155 0.66795 1.38286C0.132518 2.18601 0 3.17053 0 4.00006H1ZM3.5 1.00006V2.00006H22.9999V1.00006V6.10352e-05H3.5V1.00006Z" fill="#452A7A"/>
<path d="M17.9999 40.0001C18.5522 40.0001 18.9999 40.4478 18.9999 41.0001C18.9999 41.5523 18.5522 42.0001 17.9999 42.0001V41.0001V40.0001ZM1 31.0001H2V38.0001H1H0V31.0001H1ZM1 38.0001H2C2 38.6705 2.11748 39.186 2.33205 39.5079C2.49891 39.7582 2.79131 40.0001 3.5 40.0001V41.0001V42.0001C2.20869 42.0001 1.25109 41.492 0.66795 40.6173C0.132518 39.8141 0 38.8296 0 38.0001H1ZM3.5 41.0001V40.0001H17.9999V41.0001V42.0001H3.5V41.0001Z" fill="#452A7A"/>
<path d="M23 1.00006V8.00006C23 9.50006 23.5 11.0001 25.5 11.0001C28.3 11.0001 31.1666 11.0001 32.9999 11.0001" stroke="#452A7A" stroke-width="2" stroke-linecap="round"/>
<path d="M33 18.0001L33 11.0001" stroke="#452A7A" stroke-width="2" stroke-linecap="round"/>
<path d="M33 11.0001L22.9999 1.00006" stroke="#452A7A" stroke-width="2" stroke-linecap="round"/>
</svg>
