<svg width="24" height="24" viewBox="0 0 24 24" fill="none" xmlns="http://www.w3.org/2000/svg">
<path d="M19.0585 16.7715H17.854L17.4271 16.3598C18.9213 14.6217 19.8209 12.3652 19.8209 9.91043C19.8209 4.43682 15.384 0 9.91043 0C4.43682 0 0 4.43682 0 9.91043C0 15.384 4.43682 19.8209 9.91043 19.8209C12.3652 19.8209 14.6217 18.9213 16.3598 17.4271L16.7715 17.854V19.0585L21.7282 24L24 21.7282L19.0585 16.7715ZM9.91043 16.7715C6.11397 16.7715 3.04936 13.7069 3.04936 9.91043C3.04936 6.11397 6.11397 3.04936 9.91043 3.04936C13.7069 3.04936 16.7715 6.11397 16.7715 9.91043C16.7715 13.7069 13.7069 16.7715 9.91043 16.7715Z" fill="#0AB285"/>
</svg>
