<svg width="23" height="18" viewBox="0 0 23 18" fill="none" xmlns="http://www.w3.org/2000/svg">
<path d="M23 2.13818C22.1542 2.48965 21.2337 2.74261 20.2857 2.84113C21.27 2.2778 22.0071 1.38782 22.3587 0.338176C21.4351 0.867496 20.4232 1.23866 19.368 1.43522C18.927 0.981027 18.3936 0.6192 17.801 0.372279C17.2085 0.125359 16.5695 -0.00136274 15.9239 1.10514e-05C13.3119 1.10514e-05 11.2112 2.03965 11.2112 4.54261C11.2112 4.89409 11.2554 5.24557 11.3272 5.58374C7.41606 5.38669 3.92777 3.58669 1.6087 0.83078C1.18614 1.52606 0.964705 2.31771 0.967432 3.12338C0.967432 4.69971 1.79942 6.08965 3.06814 6.90711C2.32047 6.87874 1.5903 6.68077 0.937027 6.3293V6.38521C0.937027 8.59261 2.55678 10.4219 4.71554 10.8426C4.31021 10.944 3.89324 10.9959 3.47446 10.997C3.16765 10.997 2.87742 10.9678 2.58442 10.9278C3.18147 12.7278 4.92008 14.0352 6.99039 14.0778C5.37063 15.3 3.34179 16.0189 1.13881 16.0189C0.743541 16.0189 0.37868 16.0056 0 15.963C2.08965 17.2544 4.56904 18 7.23915 18C15.9073 18 20.6505 11.0823 20.6505 5.07782C20.6505 4.88078 20.6505 4.68374 20.6367 4.48669C21.5544 3.83965 22.3587 3.03817 23 2.13818Z" fill="white"/>
</svg>
