<svg width="45" height="45" viewBox="0 0 45 45" fill="none" xmlns="http://www.w3.org/2000/svg">
<path d="M22.5 1C10.6376 1 1 10.6376 1 22.5C1 26.3139 2.04602 29.8717 3.78939 32.978L1.03459 42.8128C0.9906 42.9702 0.988629 43.1363 1.02887 43.2947C1.06911 43.4531 1.15016 43.5981 1.26393 43.7154C1.37771 43.8327 1.52024 43.9181 1.67731 43.9631C1.83438 44.0081 2.00051 44.0112 2.15913 43.972L12.4137 41.4312C15.4293 43.039 18.8487 44 22.5 44C34.3624 44 44 34.3624 44 22.5C44 10.6376 34.3624 1 22.5 1Z" stroke="white" stroke-width="2"/>
<path d="M14.6883 11.2826C14.0891 11.2826 13.2329 11.5051 12.5299 12.2632C12.1074 12.7184 10.3481 14.4319 10.3481 17.4466C10.3481 20.5884 12.5271 23.3002 12.7907 23.6489H12.7926C13.641 24.8655 14.5797 26.0176 15.6007 27.0935C17.287 28.8687 19.6576 30.9196 22.5985 32.175C23.9539 32.7518 25.0224 33.1004 25.8328 33.3538C27.3331 33.8249 28.6998 33.7538 29.7262 33.6024C30.4955 33.4893 31.3406 33.1201 32.1772 32.591C33.0129 32.0619 33.8327 31.4038 34.1944 30.4036C34.4224 29.7834 34.5698 29.1366 34.6329 28.4789C34.6565 28.2343 34.6596 27.9883 34.6422 27.7432C34.6235 27.5207 34.6422 27.3506 34.4356 27.0094C34 26.2952 33.5074 26.2765 32.9933 26.0223C32.3564 25.7089 31.7176 25.3995 31.077 25.094C30.2628 24.7061 29.557 24.3621 29.1223 24.2069C28.8475 24.1078 28.5128 23.9657 28.0286 24.0209C27.5453 24.076 27.0667 24.4247 26.7891 24.837C26.5255 25.2277 25.4636 26.4803 25.1401 26.8486C25.1364 26.8467 25.1644 26.8589 25.0364 26.7963C24.6363 26.5981 24.1465 26.4298 23.422 26.0475C22.4787 25.5478 21.5987 24.9368 20.8009 24.2275V24.2256C19.3249 22.9263 18.291 21.2951 17.9648 20.7473C17.9872 20.7211 17.9629 20.7529 18.0087 20.7071L18.0106 20.7052C18.3443 20.3771 18.6397 19.9854 18.8893 19.6975C19.2426 19.29 19.3987 18.931 19.5679 18.5945C19.9054 17.9252 19.7175 17.1895 19.5221 16.8016V16.7997C19.5361 16.8268 19.4174 16.5641 19.2884 16.2613L19.6691 17.1858C19.3195 16.3463 18.0807 13.3625 17.8488 12.811V12.8091C17.5749 12.1594 17.2038 11.6911 16.7196 11.4649C16.2354 11.2396 15.8082 11.3032 15.7905 11.3022H15.7886C15.422 11.2875 15.0552 11.2809 14.6883 11.2826Z" stroke="white" stroke-width="2"/>
</svg>
