<svg width="23" height="17" viewBox="0 0 23 17" fill="none" xmlns="http://www.w3.org/2000/svg">
<path d="M22.5148 2.65408C22.3839 2.14065 22.1276 1.67252 21.7715 1.29654C21.4155 0.920565 20.9722 0.649935 20.4859 0.511735C18.6953 1.55094e-07 11.5 0 11.5 0C11.5 0 4.30467 1.55094e-07 2.51405 0.511735C2.02783 0.649935 1.5845 0.920565 1.22845 1.29654C0.872401 1.67252 0.616111 2.14065 0.485235 2.65408C0.150887 4.58243 -0.0113634 6.53964 0.000618039 8.5C-0.0113634 10.4604 0.150887 12.4176 0.485235 14.3459C0.616111 14.8594 0.872401 15.3275 1.22845 15.7035C1.5845 16.0794 2.02783 16.3501 2.51405 16.4883C4.30467 17 11.5 17 11.5 17C11.5 17 18.6953 17 20.4859 16.4883C20.9722 16.3501 21.4155 16.0794 21.7715 15.7035C22.1276 15.3275 22.3839 14.8594 22.5148 14.3459C22.8491 12.4176 23.0114 10.4604 22.9994 8.5C23.0114 6.53964 22.8491 4.58243 22.5148 2.65408ZM9.20012 12.1429V4.85714L15.1716 8.5L9.20012 12.1429Z" fill="white"/>
</svg>
